# xmcd CD database file generated by Grip 2.96
# 
# Track frame offsets:
#       183
#       18745
#       37233
#       50433
#       66808
#       79308
#       90333
#       102483
#       115520
#       129858
#       146083
#       157220
#       176395
#       188858
# 
# Disc length: 2688 seconds
# 
# Revision: 0
# Processed by: cddbd v1.4PL0 Copyright (c) Steve Scherf et al.
# Submitted via: Grip 2.96
# 
DISCID=bf0a7e0e
DTITLE=Love Colletion - You and Me
DYEAR=1900
DGENRE=
TTITLE0=Procol Harum - A White Shade Of Pale
TTITLE1=Billi Davis - Nights In White Satin
TTITLE2=Percy Sledge - When a Man Loves a Woman
TTITLE3=Righteous Brothers - Unchained Melody
TTITLE4=The Platters - Twilight Time
TTITLE5=Pat Boone - Moon River
TTITLE6=Neil Sedaka - You Mean Everything To Me
TTITLE7=David and Jonathan - Michelle
TTITLE8=Paulanka - Put Your Head On My Shoulder
TTITLE9=Joe Coocker - Sometihng
TTITLE10=The Platters - Smoke Gets In Your Eyes
TTITLE11=B.J. Thomas - Brigde over Troubled Water
TTITLE12=Bobby Womak - And I Love Her
TTITLE13=Ray Peterson - Tell Laura I Love Her
EXTD=
EXTT0=
EXTT1=
EXTT2=
EXTT3=
EXTT4=
EXTT5=
EXTT6=
EXTT7=
EXTT8=
EXTT9=
EXTT10=
EXTT11=
EXTT12=
EXTT13=
PLAYORDER=
